<svg version="1.1" id="Layer_1" xmlns="http://www.w3.org/2000/svg" xmlns:xlink="http://www.w3.org/1999/xlink" x="0px" y="0px"
	 width="100%" viewBox="0 0 512 512" enable-background="new 0 0 512 512" xml:space="preserve">
<path fill="#6C27B3" opacity="1.000000" stroke="none" 
	d="
M227.000000,0.999997 
	C246.687561,1.000000 266.375122,1.000000 286.405823,1.411578 
	C287.424103,2.205001 288.061707,2.816315 288.780060,2.933775 
	C297.516205,4.362288 306.398407,5.152259 314.986572,7.188203 
	C358.304962,17.457411 396.622864,37.533657 429.700470,67.312225 
	C445.597839,81.624084 459.818939,97.652939 471.030090,115.859749 
	C479.769073,130.051727 487.524506,144.972870 494.369843,160.176498 
	C503.211334,179.813675 508.296082,200.692505 511.071869,222.092209 
	C511.206146,223.127426 512.334534,224.033691 513.000000,225.000000 
	C513.000000,246.354233 513.000000,267.708466 512.593018,289.399536 
	C511.462952,292.839050 510.540405,295.910461 510.048645,299.049408 
	C506.402710,322.321045 499.553833,344.622314 489.514771,365.899933 
	C479.805817,386.477905 467.575012,405.400238 452.881958,422.888336 
	C441.026276,436.999268 427.784454,449.540253 413.369781,460.790741 
	C394.423706,475.577911 373.499298,487.115845 351.123566,495.984192 
	C332.491760,503.368652 313.304626,508.551727 293.404358,511.081726 
	C292.535645,511.192169 291.798462,512.336975 291.000000,513.000000 
	C268.645782,513.000000 246.291550,513.000000 223.601105,512.593506 
	C216.614807,510.798462 209.977646,509.344269 203.312439,508.032715 
	C173.137375,502.094940 145.360352,490.176880 119.454117,473.876312 
	C98.708939,460.823212 80.230858,444.963898 64.087181,426.496216 
	C59.013157,420.691803 54.384480,414.486969 49.719620,408.338226 
	C37.628979,392.401581 28.031422,374.993927 20.326342,356.595093 
	C11.757974,336.134857 5.836244,314.890442 2.927868,292.845551 
	C2.793877,291.829926 1.665333,290.945526 0.999998,290.000000 
	C1.000000,268.645782 1.000000,247.291550 1.406869,225.599411 
	C2.204519,224.422363 2.792099,223.619720 2.955598,222.738403 
	C4.565779,214.059067 5.749723,205.284439 7.734967,196.694077 
	C12.774849,174.885941 20.945896,154.292007 31.635595,134.572754 
	C41.551277,116.281311 53.482487,99.497284 67.435638,84.204117 
	C82.372345,67.832924 99.162949,53.521458 117.922630,41.587296 
	C150.617706,20.788004 185.963303,7.380921 224.579346,2.917904 
	C225.448502,2.817451 226.195831,1.662865 227.000000,0.999997 
M399.999664,252.500000 
	C399.999664,212.767685 399.999664,173.035370 399.999664,133.431351 
	C304.224182,133.431351 209.218933,133.431351 113.999725,133.431351 
	C113.999725,135.521423 113.999741,137.181778 113.999741,138.842148 
	C113.999763,197.812256 113.996429,256.782349 114.002853,315.752472 
	C114.004021,326.478363 120.407738,332.979797 131.205215,332.983521 
	C214.996078,333.012482 298.786926,333.009644 382.577789,332.987549 
	C393.703003,332.984619 399.994385,326.586487 399.997772,315.468597 
	C400.004059,294.812408 399.999634,274.156189 399.999664,252.500000 
M418.044678,96.601418 
	C415.728485,96.067665 413.412659,95.068794 411.096069,95.067047 
	C308.458557,94.989670 205.820969,95.000168 103.183380,95.000214 
	C102.350281,95.000214 101.513771,95.050369 100.684669,94.993011 
	C96.703850,94.717598 94.838486,96.459671 94.970352,100.539986 
	C95.110214,104.867554 94.996681,109.203178 95.001114,113.535278 
	C95.008682,120.929413 95.075829,120.998642 102.704857,120.998756 
	C205.509064,121.000214 308.313263,120.999748 411.117462,120.999313 
	C412.283783,120.999306 413.748871,121.437920 414.554077,120.897041 
	C416.218384,119.779099 418.701141,118.203949 418.785919,116.700623 
	C419.149994,110.243668 418.766602,103.744553 418.044678,96.601418 
M256.500000,359.000000 
	C277.884766,359.000000 299.269531,359.000000 321.153137,359.000000 
	C319.721283,354.763000 318.196075,351.294281 317.427643,347.665253 
	C316.738617,344.411163 314.967163,343.935333 312.135986,343.957245 
	C299.324066,344.056427 286.510956,344.000061 273.698273,344.000061 
	C249.903290,344.000061 226.108139,343.962555 202.313721,344.078583 
	C200.579666,344.087036 197.779419,344.765564 197.312210,345.893585 
	C195.621307,349.976044 194.714920,354.383423 193.419327,359.000000 
	C214.578720,359.000000 235.039352,359.000000 256.500000,359.000000 
M323.183075,380.999817 
	C324.723724,380.890869 326.264343,380.781921 328.107330,380.651581 
	C326.760925,376.715820 325.616669,373.371033 324.504364,370.119629 
	C279.304199,370.119629 234.547165,370.119629 189.467316,370.119629 
	C188.345200,373.607758 187.228088,377.080383 185.967194,380.999969 
	C231.728760,380.999969 276.987701,380.999969 323.183075,380.999817 
M361.491486,416.947723 
	C361.812836,415.285248 362.681732,413.512878 362.373383,411.976837 
	C357.844513,389.418030 353.158844,366.890717 348.513885,344.372314 
	C341.997314,344.372314 335.642426,344.372314 328.686218,344.372314 
	C336.581970,368.153320 344.255951,391.435455 352.073944,414.669159 
	C353.615509,419.250397 356.564392,420.024139 361.491486,416.947723 
M169.107895,392.702606 
	C174.483688,376.657043 179.859467,360.611511 185.423660,344.003632 
	C179.294434,344.003632 174.143127,344.077148 168.995407,343.973267 
	C166.342346,343.919769 165.401031,344.921356 164.865067,347.634399 
	C160.682281,368.807495 156.433899,389.971680 151.772141,411.042664 
	C150.852646,415.198700 151.926880,417.760376 155.337585,418.794800 
	C158.931152,419.884644 161.001862,417.383331 162.103409,413.955231 
	C164.304489,407.105377 166.690430,400.314972 169.107895,392.702606 
z"/>

<path fill="#fff" opacity="1.000000" stroke="none" 
	d="
M399.999664,253.000000 
	C399.999634,274.156189 400.004059,294.812408 399.997772,315.468597 
	C399.994385,326.586487 393.703003,332.984619 382.577789,332.987549 
	C298.786926,333.009644 214.996078,333.012482 131.205215,332.983521 
	C120.407738,332.979797 114.004021,326.478363 114.002853,315.752472 
	C113.996429,256.782349 113.999763,197.812256 113.999741,138.842148 
	C113.999741,137.181778 113.999725,135.521423 113.999725,133.431351 
	C209.218933,133.431351 304.224182,133.431351 399.999664,133.431351 
	C399.999664,173.035370 399.999664,212.767685 399.999664,253.000000 
M240.792542,222.342758 
	C238.056595,221.963058 235.181229,220.846268 232.609146,221.332794 
	C222.149551,223.311325 216.973465,230.402771 218.035400,239.600128 
	C218.522583,243.819443 216.627014,246.858704 213.865936,249.625580 
	C209.042953,254.458664 204.351242,259.437347 199.297226,264.015808 
	C197.896973,265.284332 195.229263,266.205383 193.457932,265.823883 
	C187.038589,264.441345 181.992172,266.340118 177.588669,270.888672 
	C172.428741,276.218536 171.107040,286.203552 175.433685,291.826141 
	C181.377808,299.550629 188.181213,301.092285 197.921738,297.432465 
	C204.383438,295.004578 207.904312,286.021545 206.488495,278.707764 
	C206.122986,276.819702 206.810349,274.036133 208.084549,272.643066 
	C213.361237,266.874268 218.968292,261.396027 224.658615,256.027924 
	C225.681076,255.063370 227.645508,254.962784 229.214432,254.737366 
	C233.847168,254.071762 238.494232,253.493698 243.147552,252.991180 
	C244.596939,252.834641 246.412628,252.489929 247.497971,253.152725 
	C252.639023,256.292175 257.585358,259.750458 262.001129,262.695068 
	C262.123077,269.806305 263.115387,275.764252 268.740723,279.922424 
	C274.835449,284.427521 281.551147,284.244812 287.912567,281.248535 
	C294.203918,278.285217 296.590271,272.403168 295.914642,265.647125 
	C295.469696,261.197968 296.096191,257.915863 299.697784,254.569672 
	C305.227600,249.432007 309.798553,243.272156 314.946198,237.702988 
	C315.760803,236.821686 317.455505,236.445023 318.762573,236.400482 
	C320.696991,236.334534 322.648651,236.966568 324.593048,236.967117 
	C334.686035,236.969940 341.872955,228.769836 340.991058,218.373886 
	C340.242279,209.546738 331.003845,201.852844 322.571106,203.033478 
	C312.070679,204.503601 305.184418,214.092667 307.270691,223.889481 
	C307.631989,225.586212 307.021301,228.074173 305.909821,229.401245 
	C300.496918,235.864120 294.868530,242.159164 289.047180,248.256546 
	C287.916260,249.441071 285.623108,249.787933 283.806305,249.993668 
	C278.746277,250.566650 273.654877,250.862366 266.787506,251.410263 
	C262.985779,248.793915 257.336426,244.906021 251.688873,241.014572 
	C252.640121,233.016052 248.901367,226.400711 240.792542,222.342758 
M177.443161,216.953522 
	C179.354034,218.508499 181.072205,220.445679 183.220886,221.528976 
	C186.450836,223.157455 189.568542,224.248566 190.600830,228.540543 
	C190.900497,229.786484 194.692627,230.799469 196.867065,230.767929 
	C198.250656,230.747833 200.659912,228.687729 200.757492,227.401871 
	C200.983749,224.420319 202.470398,223.748489 204.875488,222.875580 
	C215.122971,219.156357 220.176926,207.785629 216.994019,199.133560 
	C214.224686,191.605728 208.360153,187.876999 201.384521,185.583771 
	C201.384521,180.687866 201.384521,175.989578 201.384521,171.291306 
	C201.845154,171.114761 202.305786,170.938202 202.766418,170.761642 
	C203.841949,172.918488 204.925385,175.071411 205.990143,177.233551 
	C206.681061,178.636520 207.056519,180.951523 208.079559,181.279633 
	C210.338867,182.004318 213.968155,182.778458 215.121674,181.621399 
	C216.869431,179.868301 218.056976,176.290970 217.603165,173.836136 
	C215.967590,164.988541 209.559967,160.309753 201.922729,157.124680 
	C200.587784,154.781143 199.063416,151.908173 196.909821,151.313324 
	C195.012451,150.789276 190.812897,152.375839 190.427780,153.791489 
	C189.357925,157.724091 186.412064,158.579620 183.600037,160.184097 
	C177.429260,163.705032 173.038834,168.454697 172.965927,176.184097 
	C172.887115,184.537933 176.973862,190.098404 183.988205,194.048782 
	C185.819595,195.080185 188.455521,196.508591 188.737152,198.104843 
	C189.428284,202.022079 188.963089,206.143326 188.963089,210.182510 
	C188.395706,210.292252 187.828323,210.401993 187.260941,210.511734 
	C186.439667,208.199478 185.646042,205.876938 184.790558,203.577423 
	C183.555466,200.257446 181.423615,198.312531 177.608536,199.027054 
	C174.301361,199.646439 172.448517,201.820648 173.117493,204.949799 
	C173.954391,208.864426 175.628830,212.599960 177.443161,216.953522 
M184.593155,319.000000 
	C233.747971,319.000000 282.902802,319.000122 332.057617,318.999176 
	C333.390564,318.999146 334.731140,319.076416 336.054932,318.963043 
	C339.123077,318.700195 340.740692,316.977112 340.994507,313.895111 
	C341.383881,309.167236 338.641022,307.013184 331.861938,307.010559 
	C282.040619,306.991180 232.219299,306.988953 182.398041,307.041992 
	C180.471924,307.044037 178.535904,307.612030 176.623001,308.006042 
	C173.230499,308.704834 172.752502,311.200439 173.022125,314.085480 
	C173.310745,317.173950 175.052856,318.821533 178.128052,318.971008 
	C179.956833,319.059875 181.793045,318.995483 184.593155,319.000000 
M252.321091,195.631012 
	C259.461609,195.753983 266.601898,195.966202 273.742676,195.982986 
	C294.045563,196.030701 314.348663,195.977280 334.651581,196.019196 
	C338.027405,196.026169 340.586273,195.015793 340.933716,191.320328 
	C341.263702,187.810730 339.940430,185.175125 336.074158,184.583740 
	C334.295563,184.311707 332.494385,184.028137 330.702850,184.024567 
	C310.899200,183.985123 291.095428,183.999054 271.291687,184.000168 
	C266.631989,184.000427 261.958160,183.776917 257.315887,184.063141 
	C250.070557,184.509918 247.798447,189.114807 252.321091,195.631012 
M252.350677,158.388641 
	C249.045227,160.381332 249.157990,163.985931 250.489273,166.273239 
	C251.608551,168.196320 254.959930,169.780014 257.363281,169.837540 
	C271.168396,170.168060 284.985443,169.999557 298.798462,169.998993 
	C301.794037,169.998871 304.802979,170.170731 307.781891,169.946442 
	C311.670227,169.653656 314.739380,167.419540 314.655853,163.565292 
	C314.574280,159.798752 312.068756,157.818008 307.603119,157.891281 
	C289.468842,158.188858 271.327759,158.072098 252.350677,158.388641 
z"/>
<path fill="#fff" opacity="1.000000" stroke="none" 
	d="
M418.350098,96.931107 
	C418.766602,103.744553 419.149994,110.243668 418.785919,116.700623 
	C418.701141,118.203949 416.218384,119.779099 414.554077,120.897041 
	C413.748871,121.437920 412.283783,120.999306 411.117462,120.999313 
	C308.313263,120.999748 205.509064,121.000214 102.704857,120.998756 
	C95.075829,120.998642 95.008682,120.929413 95.001114,113.535278 
	C94.996681,109.203178 95.110214,104.867554 94.970352,100.539986 
	C94.838486,96.459671 96.703850,94.717598 100.684669,94.993011 
	C101.513771,95.050369 102.350281,95.000214 103.183380,95.000214 
	C205.820969,95.000168 308.458557,94.989670 411.096069,95.067047 
	C413.412659,95.068794 415.728485,96.067665 418.350098,96.931107 
z"/>
<path fill="#fff" opacity="1.000000" stroke="none" 
	d="
M256.000000,359.000000 
	C235.039352,359.000000 214.578720,359.000000 193.419327,359.000000 
	C194.714920,354.383423 195.621307,349.976044 197.312210,345.893585 
	C197.779419,344.765564 200.579666,344.087036 202.313721,344.078583 
	C226.108139,343.962555 249.903290,344.000061 273.698273,344.000061 
	C286.510956,344.000061 299.324066,344.056427 312.135986,343.957245 
	C314.967163,343.935333 316.738617,344.411163 317.427643,347.665253 
	C318.196075,351.294281 319.721283,354.763000 321.153137,359.000000 
	C299.269531,359.000000 277.884766,359.000000 256.000000,359.000000 
z"/>
<path fill="#fff" opacity="1.000000" stroke="none" 
	d="
M322.714844,380.999878 
	C276.987701,380.999969 231.728760,380.999969 185.967194,380.999969 
	C187.228088,377.080383 188.345200,373.607758 189.467316,370.119629 
	C234.547165,370.119629 279.304199,370.119629 324.504364,370.119629 
	C325.616669,373.371033 326.760925,376.715820 328.107330,380.651581 
	C326.264343,380.781921 324.723724,380.890869 322.714844,380.999878 
z"/>
<path fill="#fff" opacity="1.000000" stroke="none" 
	d="
M361.225159,417.240967 
	C356.564392,420.024139 353.615509,419.250397 352.073944,414.669159 
	C344.255951,391.435455 336.581970,368.153320 328.686218,344.372314 
	C335.642426,344.372314 341.997314,344.372314 348.513885,344.372314 
	C353.158844,366.890717 357.844513,389.418030 362.373383,411.976837 
	C362.681732,413.512878 361.812836,415.285248 361.225159,417.240967 
z"/>
<path fill="#fff" opacity="1.000000" stroke="none" 
	d="
M169.053955,393.101318 
	C166.690430,400.314972 164.304489,407.105377 162.103409,413.955231 
	C161.001862,417.383331 158.931152,419.884644 155.337585,418.794800 
	C151.926880,417.760376 150.852646,415.198700 151.772141,411.042664 
	C156.433899,389.971680 160.682281,368.807495 164.865067,347.634399 
	C165.401031,344.921356 166.342346,343.919769 168.995407,343.973267 
	C174.143127,344.077148 179.294434,344.003632 185.423660,344.003632 
	C179.859467,360.611511 174.483688,376.657043 169.053955,393.101318 
z"/>
<path fill="#6C27B3" opacity="1.000000" stroke="none" 
	d="
M241.103149,222.588287 
	C248.901367,226.400711 252.640121,233.016052 251.687958,241.016357 
	C257.336426,244.906021 262.985779,248.793915 266.787506,251.410263 
	C273.654877,250.862366 278.746277,250.566650 283.806305,249.993668 
	C285.623108,249.787933 287.916260,249.441071 289.047180,248.256546 
	C294.868530,242.159164 300.496918,235.864120 305.909821,229.401245 
	C307.021301,228.074173 307.631989,225.586212 307.270691,223.889481 
	C305.184418,214.092667 312.070679,204.503601 322.571106,203.033478 
	C331.003845,201.852844 340.242279,209.546738 340.991058,218.373886 
	C341.872955,228.769836 334.686035,236.969940 324.593048,236.967117 
	C322.648651,236.966568 320.696991,236.334534 318.762573,236.400482 
	C317.455505,236.445023 315.760803,236.821686 314.946198,237.702988 
	C309.798553,243.272156 305.227600,249.432007 299.697784,254.569672 
	C296.096191,257.915863 295.469696,261.197968 295.914642,265.647125 
	C296.590271,272.403168 294.203918,278.285217 287.912567,281.248535 
	C281.551147,284.244812 274.835449,284.427521 268.740723,279.922424 
	C263.115387,275.764252 262.123077,269.806305 262.001129,262.695068 
	C257.585358,259.750458 252.639023,256.292175 247.497971,253.152725 
	C246.412628,252.489929 244.596939,252.834641 243.147552,252.991180 
	C238.494232,253.493698 233.847168,254.071762 229.214432,254.737366 
	C227.645508,254.962784 225.681076,255.063370 224.658615,256.027924 
	C218.968292,261.396027 213.361237,266.874268 208.084549,272.643066 
	C206.810349,274.036133 206.122986,276.819702 206.488495,278.707764 
	C207.904312,286.021545 204.383438,295.004578 197.921738,297.432465 
	C188.181213,301.092285 181.377808,299.550629 175.433685,291.826141 
	C171.107040,286.203552 172.428741,276.218536 177.588669,270.888672 
	C181.992172,266.340118 187.038589,264.441345 193.457932,265.823883 
	C195.229263,266.205383 197.896973,265.284332 199.297226,264.015808 
	C204.351242,259.437347 209.042953,254.458664 213.865936,249.625580 
	C216.627014,246.858704 218.522583,243.819443 218.035400,239.600128 
	C216.973465,230.402771 222.149551,223.311325 232.609146,221.332794 
	C235.181229,220.846268 238.056595,221.963058 241.103149,222.588287 
M321.537628,224.074020 
	C323.671356,223.776443 326.291443,224.101700 327.761200,222.953888 
	C328.681854,222.234894 328.497009,218.971634 327.690887,217.436844 
	C326.505493,215.180054 324.278595,213.828537 321.560822,215.954529 
	C318.502075,218.347260 318.119507,220.935181 321.537628,224.074020 
M277.347534,261.918610 
	C276.357300,263.873444 274.251221,266.138702 274.684875,267.697418 
	C275.134979,269.315369 278.282166,271.459259 279.811890,271.156952 
	C281.484283,270.826477 283.760223,267.980957 283.798828,266.189087 
	C283.865509,263.093079 281.618011,260.989349 277.347534,261.918610 
M194.916214,280.922394 
	C194.305542,280.160309 193.794189,279.282349 193.065582,278.657837 
	C190.866196,276.772675 188.328232,276.735107 186.713211,279.014771 
	C185.662979,280.497223 184.834473,283.821960 185.595627,284.546204 
	C187.107590,285.984802 189.914993,286.968994 191.935760,286.632355 
	C193.188202,286.423767 193.978470,283.440521 194.916214,280.922394 
M230.018341,239.339478 
	C230.634232,242.392075 232.839264,243.699203 235.461182,242.804916 
	C237.210510,242.208252 239.666580,240.105286 239.627701,238.738403 
	C239.577682,236.979630 237.686966,234.384476 235.986603,233.740509 
	C232.064346,232.255081 230.467834,234.998932 230.018341,239.339478 
z"/>
<path fill="#6C27B3" opacity="1.000000" stroke="none" 
	d="
M177.192444,216.683167 
	C175.628830,212.599960 173.954391,208.864426 173.117493,204.949799 
	C172.448517,201.820648 174.301361,199.646439 177.608536,199.027054 
	C181.423615,198.312531 183.555466,200.257446 184.790558,203.577423 
	C185.646042,205.876938 186.439667,208.199478 187.260941,210.511734 
	C187.828323,210.401993 188.395706,210.292252 188.963089,210.182510 
	C188.963089,206.143326 189.428284,202.022079 188.737152,198.104843 
	C188.455521,196.508591 185.819595,195.080185 183.988205,194.048782 
	C176.973862,190.098404 172.887115,184.537933 172.965927,176.184097 
	C173.038834,168.454697 177.429260,163.705032 183.600037,160.184097 
	C186.412064,158.579620 189.357925,157.724091 190.427780,153.791489 
	C190.812897,152.375839 195.012451,150.789276 196.909821,151.313324 
	C199.063416,151.908173 200.587784,154.781143 201.922729,157.124680 
	C209.559967,160.309753 215.967590,164.988541 217.603165,173.836136 
	C218.056976,176.290970 216.869431,179.868301 215.121674,181.621399 
	C213.968155,182.778458 210.338867,182.004318 208.079559,181.279633 
	C207.056519,180.951523 206.681061,178.636520 205.990143,177.233551 
	C204.925385,175.071411 203.841949,172.918488 202.766418,170.761642 
	C202.305786,170.938202 201.845154,171.114761 201.384521,171.291306 
	C201.384521,175.989578 201.384521,180.687866 201.384521,185.583771 
	C208.360153,187.876999 214.224686,191.605728 216.994019,199.133560 
	C220.176926,207.785629 215.122971,219.156357 204.875488,222.875580 
	C202.470398,223.748489 200.983749,224.420319 200.757492,227.401871 
	C200.659912,228.687729 198.250656,230.747833 196.867065,230.767929 
	C194.692627,230.799469 190.900497,229.786484 190.600830,228.540543 
	C189.568542,224.248566 186.450836,223.157455 183.220886,221.528976 
	C181.072205,220.445679 179.354034,218.508499 177.192444,216.683167 
M201.011032,208.597824 
	C202.108780,208.774704 203.709229,209.505051 204.222687,209.038651 
	C207.555695,206.011246 206.017136,201.193954 201.002350,199.351761 
	C201.002350,202.243271 201.002350,205.023224 201.011032,208.597824 
M188.977432,178.983871 
	C188.977432,176.604462 188.977432,174.225052 188.977432,171.455154 
	C183.443848,175.459000 183.494263,178.837357 188.774323,182.210861 
	C188.848373,181.314178 188.912140,180.542053 188.977432,178.983871 
z"/>
<path fill="#6C27B3" opacity="1.000000" stroke="none" 
	d="
M184.109528,319.000000 
	C181.793045,318.995483 179.956833,319.059875 178.128052,318.971008 
	C175.052856,318.821533 173.310745,317.173950 173.022125,314.085480 
	C172.752502,311.200439 173.230499,308.704834 176.623001,308.006042 
	C178.535904,307.612030 180.471924,307.044037 182.398041,307.041992 
	C232.219299,306.988953 282.040619,306.991180 331.861938,307.010559 
	C338.641022,307.013184 341.383881,309.167236 340.994507,313.895111 
	C340.740692,316.977112 339.123077,318.700195 336.054932,318.963043 
	C334.731140,319.076416 333.390564,318.999146 332.057617,318.999176 
	C282.902802,319.000122 233.747971,319.000000 184.109528,319.000000 
z"/>
<path fill="#6C27B3" opacity="1.000000" stroke="none" 
	d="
M251.987808,195.348816 
	C247.798447,189.114807 250.070557,184.509918 257.315887,184.063141 
	C261.958160,183.776917 266.631989,184.000427 271.291687,184.000168 
	C291.095428,183.999054 310.899200,183.985123 330.702850,184.024567 
	C332.494385,184.028137 334.295563,184.311707 336.074158,184.583740 
	C339.940430,185.175125 341.263702,187.810730 340.933716,191.320328 
	C340.586273,195.015793 338.027405,196.026169 334.651581,196.019196 
	C314.348663,195.977280 294.045563,196.030701 273.742676,195.982986 
	C266.601898,195.966202 259.461609,195.753983 251.987808,195.348816 
z"/>
<path fill="#6C27B3" opacity="1.000000" stroke="none" 
	d="
M252.769928,158.248383 
	C271.327759,158.072098 289.468842,158.188858 307.603119,157.891281 
	C312.068756,157.818008 314.574280,159.798752 314.655853,163.565292 
	C314.739380,167.419540 311.670227,169.653656 307.781891,169.946442 
	C304.802979,170.170731 301.794037,169.998871 298.798462,169.998993 
	C284.985443,169.999557 271.168396,170.168060 257.363281,169.837540 
	C254.959930,169.780014 251.608551,168.196320 250.489273,166.273239 
	C249.157990,163.985931 249.045227,160.381332 252.769928,158.248383 
z"/>
<path fill="#fff" opacity="1.000000" stroke="none" 
	d="
M321.151917,223.969269 
	C318.119507,220.935181 318.502075,218.347260 321.560822,215.954529 
	C324.278595,213.828537 326.505493,215.180054 327.690887,217.436844 
	C328.497009,218.971634 328.681854,222.234894 327.761200,222.953888 
	C326.291443,224.101700 323.671356,223.776443 321.151917,223.969269 
z"/>
<path fill="#fff" opacity="1.000000" stroke="none" 
	d="
M277.666443,261.723877 
	C281.618011,260.989349 283.865509,263.093079 283.798828,266.189087 
	C283.760223,267.980957 281.484283,270.826477 279.811890,271.156952 
	C278.282166,271.459259 275.134979,269.315369 274.684875,267.697418 
	C274.251221,266.138702 276.357300,263.873444 277.666443,261.723877 
z"/>
<path fill="#fff" opacity="1.000000" stroke="none" 
	d="
M194.946198,281.312561 
	C193.978470,283.440521 193.188202,286.423767 191.935760,286.632355 
	C189.914993,286.968994 187.107590,285.984802 185.595627,284.546204 
	C184.834473,283.821960 185.662979,280.497223 186.713211,279.014771 
	C188.328232,276.735107 190.866196,276.772675 193.065582,278.657837 
	C193.794189,279.282349 194.305542,280.160309 194.946198,281.312561 
z"/>
<path fill="#fff" opacity="1.000000" stroke="none" 
	d="
M230.007782,238.941101 
	C230.467834,234.998932 232.064346,232.255081 235.986603,233.740509 
	C237.686966,234.384476 239.577682,236.979630 239.627701,238.738403 
	C239.666580,240.105286 237.210510,242.208252 235.461182,242.804916 
	C232.839264,243.699203 230.634232,242.392075 230.007782,238.941101 
z"/>
<path fill="#fff" opacity="1.000000" stroke="none" 
	d="
M201.006683,208.200500 
	C201.002350,205.023224 201.002350,202.243271 201.002350,199.351761 
	C206.017136,201.193954 207.555695,206.011246 204.222687,209.038651 
	C203.709229,209.505051 202.108780,208.774704 201.006683,208.200500 
z"/>
<path fill="#fff" opacity="1.000000" stroke="none" 
	d="
M188.976669,179.376907 
	C188.912140,180.542053 188.848373,181.314178 188.774323,182.210861 
	C183.494263,178.837357 183.443848,175.459000 188.977432,171.455154 
	C188.977432,174.225052 188.977432,176.604462 188.976669,179.376907 
z"/>
</svg>